<?xml version="1.0" encoding="UTF-8"?>
<svg xmlns="http://www.w3.org/2000/svg" width="515" height="118" viewBox="0 0 515 118" fill="none">
  <path d="M119.36 15.4004L104.253 0L59.6801 43.844L15.1076 0L0 15.4004L44.3108 58.9825L0 102.565L15.1076 117.965L59.6801 74.121L104.253 117.965L119.378 102.565L75.0667 58.9825L119.36 15.4004Z" fill="#0D0D0D"></path>
  <path d="M333.012 0.0349216L288.457 43.879L243.901 0.0349216L228.759 15.4179L273.07 59L228.759 102.6L243.901 118L288.457 74.1385L331.773 116.778L333.012 118L348.137 102.6L303.843 59L348.137 15.4179L333.012 0.0349216Z" fill="#0D0D0D"></path>
  <path d="M515 0.0349216H493.438V118H515V0.0349216Z" fill="#0D0D0D"></path>
</svg>
